<svg width="24" height="24" viewBox="0 0 24 24" fill="none" xmlns="http://www.w3.org/2000/svg">
<path d="M6.39253 4.95923C7.71845 3.90331 9.31558 3.24325 11.0001 3.05499V13H20.9451C20.7568 14.6845 20.0968 16.2816 19.0409 17.6076C17.9849 18.9335 16.5761 19.9343 14.9765 20.4949C13.3768 21.0554 11.6514 21.1529 9.99886 20.7761C8.34627 20.3993 6.83366 19.5635 5.63511 18.365C4.43657 17.1664 3.6008 15.6538 3.224 14.0012C2.8472 12.3486 2.94469 10.6232 3.50523 9.02361C4.06578 7.42399 5.06661 6.01514 6.39253 4.95923Z" stroke="#718096" stroke-width="2" stroke-linecap="round" stroke-linejoin="round"/>
<path d="M15 8.99999H20.488C20.0391 7.73461 19.3135 6.58534 18.3641 5.63593C17.4147 4.68653 16.2654 3.96092 15 3.51199V8.99999Z" stroke="#718096" stroke-width="2" stroke-linecap="round" stroke-linejoin="round"/>
</svg>
