<svg width="512" height="512" xmlns="http://www.w3.org/2000/svg">
 <title/>

 <g>
  <title>background</title>
  <rect fill="none" id="canvas_background" height="402" width="582" y="-1" x="-1"/>
 </g>
 <g>
  <title>Layer 1</title>
  <path fill="#bf0000" id="svg_1" d="m257,461.46c-114,0 -206.73,-92.74 -206.73,-206.73s92.73,-206.73 206.73,-206.73s206.73,92.74 206.73,206.73s-92.73,206.73 -206.73,206.73zm0,-383.46c-97.45,0 -176.73,79.28 -176.73,176.73s79.28,176.73 176.73,176.73s176.73,-79.28 176.73,-176.73s-79.28,-176.73 -176.73,-176.73z"/>
  <path fill="#bf0000" id="svg_2" d="m342.92,358a15,15 0 0 1 -10.61,-4.39l-171.84,-171.85a15,15 0 1 1 21.21,-21.21l171.85,171.85a15,15 0 0 1 -10.61,25.6z"/>
  <path fill="#bf0000" id="svg_3" d="m171.07,358a15,15 0 0 1 -10.6,-25.6l171.84,-171.85a15,15 0 0 1 21.22,21.21l-171.85,171.85a15,15 0 0 1 -10.61,4.39z"/>
 </g>
</svg>