<?xml version="1.0" encoding="UTF-8"?>
<svg xmlns="http://www.w3.org/2000/svg" xmlns:xlink="http://www.w3.org/1999/xlink" viewBox="0 0 500 500" width="500px" height="500px">
<g id="surface313295">
<path style=" stroke:none;fill-rule:nonzero;fill:rgb(100%,100%,100%);fill-opacity:1;" d="M 445.273438 347.5 C 434.492188 371.445312 429.296875 382.148438 415.429688 403.28125 C 396.015625 432.8125 368.632812 469.6875 334.804688 469.921875 C 304.6875 470.195312 296.914062 450.273438 256.015625 450.625 C 215.15625 450.820312 206.640625 470.3125 176.484375 470 C 142.617188 469.6875 116.71875 436.484375 97.304688 406.992188 C 43.007812 324.296875 37.265625 227.34375 70.820312 175.78125 C 94.570312 139.21875 132.109375 117.734375 167.382812 117.734375 C 203.320312 117.734375 225.898438 137.460938 255.585938 137.460938 C 284.414062 137.460938 301.953125 117.695312 343.515625 117.695312 C 374.921875 117.695312 408.125 134.804688 431.875 164.335938 C 354.21875 206.914062 366.835938 317.8125 445.273438 347.5 Z M 311.953125 84.6875 C 327.070312 65.273438 338.554688 37.890625 334.375 10 C 309.726562 11.679688 280.898438 27.421875 264.0625 47.8125 C 248.789062 66.40625 236.132812 93.984375 241.054688 120.664062 C 267.96875 121.523438 295.820312 105.46875 311.953125 84.6875 Z M 311.953125 84.6875 "/>
</g>
</svg>
