<svg width="32" height="32" xmlns="http://www.w3.org/2000/svg">

 <title/>
 <g>
  <title>background</title>
  <rect fill="none" id="canvas_background" height="402" width="582" y="-1" x="-1"/>
 </g>
 <g>
  <title>Layer 1</title>
  <path fill="#ffffff" id="svg_1" d="m16,31a15,15 0 1 1 15,-15a15,15 0 0 1 -15,15zm0,-28a13,13 0 1 0 13,13a13,13 0 0 0 -13,-13z" class="cls-1"/>
  <rect fill="#ffffff" id="svg_2" y="14" x="15" width="2" height="9" class="cls-1"/>
  <path fill="#ffffff" id="svg_3" d="m16,12a2,2 0 1 1 2,-2a2,2 0 0 1 -2,2zm0,-2z" class="cls-1"/>
 </g>
</svg>